Coordinates
version=1
nRows=26
nColumns=24
inDegrees=yes

Units are S.I. units (second, meters, Newtons, ...)
Angles are in degrees.

endheader
time	pelvis_tilt	pelvis_list	pelvis_rotation	pelvis_tx	pelvis_ty	pelvis_tz	hip_flexion_r	hip_adduction_r	hip_rotation_r	knee_angle_r	ankle_angle_r	subtalar_angle_r	mtp_angle_r	hip_flexion_l	hip_adduction_l	hip_rotation_l	knee_angle_l	ankle_angle_l	subtalar_angle_l	mtp_angle_l	lumbar_extension	lumbar_bending	lumbar_rotation
      7.33000000	     -1.70692960	      6.83614921	      9.31975613	     -2.91610265	      0.86341945	      0.21353701	     19.28074043	     -6.30155969	    -15.46500193	      3.73410375	      5.62097233	      8.73545560	      0.00000000	    -15.76307748	     10.06430022	     16.71545824	    -11.14008693	     17.60821139	      0.91564557	      0.00000000	    -19.89014131	     -6.31463539	    -13.51519593
      7.34000000	     -1.23055940	      6.59224779	      9.21665301	     -2.90377502	      0.86363801	      0.21399885	     19.19069300	     -5.96402618	    -13.88946803	      1.79612137	      4.60247875	      6.47004378	      0.00000000	    -16.32212358	      9.66824690	     15.95977263	    -12.43334099	     17.09066852	      1.96816548	      0.00000000	    -20.47940991	     -5.85530214	    -13.32837739
      7.35000000	     -0.81552331	      6.34956411	      9.06914975	     -2.89139834	      0.86403002	      0.21445087	     19.17337586	     -5.61207298	    -11.56800418	     -0.23837887	      3.18064285	      3.41495776	      0.00000000	    -16.72988766	      9.32289043	     15.34080228	    -13.85458818	     16.16003764	      2.69587304	      0.00000000	    -20.95908823	     -5.40120132	    -13.14818512
      7.36000000	     -0.46312551	      6.04410542	      8.85065920	     -2.87893956	      0.86460471	      0.21509419	     19.26630821	     -5.13434959	     -9.04656781	     -2.38081465	      1.69289388	      0.40909525	      0.00000000	    -16.89630622	      8.94461139	     14.43578669	    -15.51622574	     15.00413962	      3.58840877	      0.00000000	    -21.30555686	     -4.91126380	    -12.90202529
      7.37000000	     -0.12290404	      5.72545994	      8.56993548	     -2.86648142	      0.86541250	      0.21592556	     19.38665093	     -4.57944235	     -6.52383388	     -4.59051563	      0.49655336	     -2.08233338	      0.00000000	    -16.85700291	      8.56657648	     13.28467485	    -17.44721916	     13.57931143	      4.61227366	      0.00000000	    -21.61128653	     -4.43755312	    -12.67413165
      7.38000000	      0.06434844	      5.27177334	      8.31831761	     -2.85381553	      0.86628626	      0.21681317	     19.58647646	     -3.84445196	     -4.24976311	     -6.68434221	     -0.59725397	     -4.40445111	      0.00000000	    -16.47294757	      8.07135619	     12.16195136	    -19.62517090	     11.85189693	      5.47773813	      0.00000000	    -21.61274152	     -3.85008810	    -12.34513215
      7.39000000	      0.26515899	      4.81597002	      8.04606771	     -2.84118470	      0.86735542	      0.21778225	     19.70013672	     -3.07773914	     -2.37397252	     -8.70526616	     -1.05097917	     -5.86835729	      0.00000000	    -15.88942735	      7.56394659	     10.90374349	    -22.09513113	      9.84908095	      6.36375696	      0.00000000	    -21.60773100	     -3.27146585	    -12.07328061
      7.40000000	      0.47812709	      4.38818353	      7.86650207	     -2.82865138	      0.86863209	      0.21870289	     19.66056647	     -2.36265104	     -1.10881538	    -10.53847481	     -0.90408926	     -6.61641372	      0.00000000	    -15.10616899	      7.03953251	      9.70371148	    -24.85078640	      7.56356806	      7.22205237	      0.00000000	    -21.61569654	     -2.73784304	    -11.87754394
      7.41000000	      0.45892066	      3.92908703	      7.73044806	     -2.81632552	      0.86963855	      0.21950813	     19.71150245	     -1.64502512	      0.05254020	    -12.09344642	     -0.58698000	     -7.41069726	      0.00000000	    -13.84160747	      6.53525620	      8.66591852	    -27.92079217	      5.12325023	      7.72350403	      0.00000000	    -21.33785263	     -2.17717063	    -11.70139680
      7.42000000	      0.53046496	      3.40765882	      7.75219755	     -2.80402364	      0.87089942	      0.22006505	     19.44413009	     -0.93606656	      0.44623899	    -13.27525253	      0.12805377	     -7.64661917	      0.00000000	    -12.48940303	      5.89326545	      7.72991900	    -31.18758218	      2.47623854	      8.05015308	      0.00000000	    -21.12839158	     -1.51459571	    -11.56272120
      7.43000000	      0.30115464	      2.96599503	      7.88994817	     -2.79238502	      0.87174655	      0.22043491	     19.39268850	     -0.40100038	      0.67277019	    -14.23321564	      1.01043457	     -7.74825609	      0.00000000	    -10.55648727	      5.38835398	      7.02976034	    -34.77038245	     -0.22759121	      8.07628208	      0.00000000	    -20.69400002	     -0.96977391	    -11.54080494
      7.44000000	      0.09553229	      2.51081024	      8.19704170	     -2.78091323	      0.87266136	      0.22066387	     19.09623784	      0.08881422	      0.48335425	    -14.78350580	      2.04755130	     -7.72374169	      0.00000000	     -8.49727000	      4.81067793	      6.44959518	    -38.45480959	     -3.04956711	      7.82731768	      0.00000000	    -20.28317367	     -0.43814354	    -11.61107691
      7.45000000	     -0.14780494	      1.98919668	      8.60372677	     -2.76975715	      0.87353173	      0.22071794	     18.67880612	      0.59745991	      0.04580381	    -14.97788251	      3.03764232	     -7.58151460	      0.00000000	     -6.24964922	      4.16486649	      5.98357323	    -42.20061593	     -5.91780062	      7.20494780	      0.00000000	    -19.86698283	      0.17015333	    -11.67941071
      7.46000000	     -0.34810728	      1.44859572	      9.12692530	     -2.75902559	      0.87444463	      0.22065517	     18.07939841	      1.10466365	     -0.56325223	    -14.85558369	      3.93000729	     -7.47648412	      0.00000000	     -3.93007278	      3.49606371	      5.65804151	    -45.92722324	     -8.79413107	      6.08918077	      0.00000000	    -19.59510102	      0.79126326	    -11.75382936
      7.47000000	     -0.63512563	      0.85623463	      9.67756220	     -2.74846560	      0.87523690	      0.22051323	     17.46025015	      1.63697979	     -1.37705785	    -14.45726838	      4.78648317	     -7.10974165	      0.00000000	     -1.45914927	      2.79758265	      5.37372561	    -49.52449902	    -11.59215222	      4.61784530	      0.00000000	    -19.22011341	      1.44033325	    -11.78608780
      7.48000000	     -0.75313090	      0.32398776	     10.26035205	     -2.73827991	      0.87629499	      0.22037809	     16.54706673	      2.15900393	     -2.11546986	    -13.79468712	      5.43296701	     -6.92747813	      0.00000000	      0.83597508	      2.16836452	      5.18803528	    -52.87597855	    -14.26543782	      2.61603012	      0.00000000	    -19.17452877	      2.01806682	    -11.78162938
      7.49000000	     -0.97317722	     -0.20561471	     10.78273932	     -2.72814284	      0.87724819	      0.22028071	     15.69906891	      2.66838435	     -3.09799545	    -13.00354074	      6.10348226	     -6.31025296	      0.00000000	      3.20288838	      1.58093232	      4.98308283	    -55.93669136	    -16.58626736	      0.44452826	      0.00000000	    -18.99192417	      2.53998010	    -11.76498637
      7.50000000	     -1.02339837	     -0.60797611	     11.23978678	     -2.71823312	      0.87850468	      0.22029874	     14.57723399	      3.13730193	     -3.79673827	    -12.02880872	      6.53880445	     -5.95869689	      0.00000000	      5.28805603	      1.13832623	      4.79687904	    -58.61774468	    -18.37953883	     -1.93691422	      0.00000000	    -19.13073715	      2.91595265	    -11.66676309
      7.51000000	     -1.17704015	     -0.93268384	     11.55815878	     -2.70845955	      0.87965769	      0.22039945	     13.60540702	      3.51398558	     -4.72197519	    -11.11620132	      7.11638391	     -5.02047553	      0.00000000	      7.38345622	      0.82923620	      4.53521405	    -60.95148410	    -19.39962364	     -4.16857539	      0.00000000	    -19.18669216	      3.16182956	    -11.54528134
      7.52000000	     -1.24285910	     -1.10119288	     11.76432996	     -2.69875183	      0.88102669	      0.22064429	     12.45944864	      3.80626202	     -5.21778593	    -10.09494690	      7.47779629	     -4.39718025	      0.00000000	      9.22637743	      0.69041295	      4.21932060	    -62.86288867	    -19.60551020	     -6.20589275	      0.00000000	    -19.41481667	      3.22499299	    -11.42738594
      7.53000000	     -1.37885354	     -1.14312078	     11.82419320	     -2.68919554	      0.88233184	      0.22099641	     11.44765769	      3.96151122	     -5.78747987	     -9.20703267	      7.95879445	     -3.43151510	      0.00000000	     11.00542496	      0.71441465	      3.79547244	    -64.39495120	    -18.88838289	     -7.86612547	      0.00000000	    -19.61962309	      3.11520895	    -11.28624920
      7.54000000	     -1.54463969	     -1.06962307	     11.74951324	     -2.67969242	      0.88364593	      0.22143578	     10.48030838	      4.00770560	     -6.22487986	     -8.37472863	      8.40116897	     -2.40011526	      0.00000000	     12.66340543	      0.87825723	      3.30002247	    -65.52921817	    -17.28809207	     -8.95450637	      0.00000000	    -19.81896646	      2.86340315	    -11.08719515
      7.55000000	     -1.68815147	     -0.87910421	     11.58645144	     -2.67037605	      0.88496906	      0.22197246	      9.49678467	      3.95976667	     -6.26990530	     -7.57592144	      8.71275368	     -1.72180667	      0.00000000	     14.18212922	      1.16046041	      2.73770596	    -66.29318655	    -15.07225599	     -9.62708084	      0.00000000	    -20.11032006	      2.49489928	    -10.99048930
      7.56000000	     -1.91070531	     -0.56240259	     11.40480858	     -2.66105003	      0.88615600	      0.22252439	      8.62293556	      3.76073669	     -6.39374347	     -6.86434561	      9.13680931	     -0.99163450	      0.00000000	     15.66112181	      1.59300374	      2.16088575	    -66.68002521	    -12.45053168	     -9.85497549	      0.00000000	    -20.28102669	      1.95186508	    -10.92721903
      7.57000000	     -2.16777710	     -0.24632173	     11.19771688	     -2.65180884	      0.88718875	      0.22298883	      7.83362684	      3.54530505	     -6.52597402	     -6.21837657	      9.51919970	     -0.22951405	      0.00000000	     17.10591774	      2.04870051	      1.60082253	    -66.74587040	     -9.63224828	     -9.80781542	      0.00000000	    -20.39294877	      1.45430775	    -10.92377708
      7.58000000	     -2.43941470	      0.13110651	     11.00481271	     -2.64265650	      0.88805249	      0.22341216	      7.08768642	      3.26480671	     -6.55951091	     -5.62591682	      9.92722169	      0.32681142	      0.00000000	     18.49193768	      2.58652691	      1.07653646	    -66.49840737	     -6.82917490	     -9.55275360	      0.00000000	    -20.48627488	      0.90158143	    -11.00521927
